<?xml version="1.0" encoding="UTF-8" standalone="no"?>
<svg
   height="128"
   width="128"
   version="1.1"
   id="svg353"
   sodipodi:docname="icon.svg"
   inkscape:version="1.2.2 (b0a8486, 2022-12-01)"
   xmlns:inkscape="http://www.inkscape.org/namespaces/inkscape"
   xmlns:sodipodi="http://sodipodi.sourceforge.net/DTD/sodipodi-0.dtd"
   xmlns="http://www.w3.org/2000/svg"
   xmlns:svg="http://www.w3.org/2000/svg">
  <defs
     id="defs357" />
  <sodipodi:namedview
     id="namedview355"
     pagecolor="#ffffff"
     bordercolor="#000000"
     borderopacity="0.25"
     inkscape:showpageshadow="2"
     inkscape:pageopacity="0.0"
     inkscape:pagecheckerboard="0"
     inkscape:deskcolor="#d1d1d1"
     showgrid="false"
     inkscape:zoom="1.84375"
     inkscape:cx="-2.9830508"
     inkscape:cy="65.355932"
     inkscape:window-width="1309"
     inkscape:window-height="847"
     inkscape:window-x="0"
     inkscape:window-y="25"
     inkscape:window-maximized="0"
     inkscape:current-layer="svg353" />
  <path
     d="M 16,0 C 7.14,0 0,7.13 0,15.99 v 95.98 c 0,8.86 7.13,15.99 16,15.99 h 96 c 8.86,0 16,-7.13 16,-15.99 V 15.99 C 128,7.14 120.86,0 112,0 Z"
     fill="#363d52"
     id="path329"
     style="fill:#00b3d2;fill-opacity:1" />
  <path
     d="M 16,0 C 7.14,0 0,7.13 0,15.99 v 95.98 c 0,8.86 7.13,15.99 16,15.99 h 96 c 8.86,0 16,-7.13 16,-15.99 V 15.99 C 128,7.14 120.86,0 112,0 Z m 0,4 h 96 c 6.64,0 12,5.35 12,11.99 v 95.98 c 0,6.64 -5.35,11.99 -12,11.99 H 16 c -6.64,0 -12,-5.35 -12,-11.99 V 15.99 C 4,9.35 9.36,4 16,4 Z"
     fill-opacity="0.4"
     id="path331" />
  <circle
     style="fill:#f8f600;fill-opacity:1;stroke:none;stroke-width:10.0829;stroke-linecap:square;stroke-miterlimit:0.1;stroke-opacity:1"
     id="path1194"
     cx="64"
     cy="64"
     r="55" />
  <path
     style="fill:#000000;fill-opacity:1;stroke:#000000;stroke-width:9.04819;stroke-linecap:square;stroke-miterlimit:0.1;stroke-opacity:1"
     d="M 23.864406,64.542373 C 54.479639,113.98512 64.13066,129.92575 104.13559,64"
     id="path1250"
     sodipodi:nodetypes="cc" />
</svg>
