<svg width="1080" height="3840" xmlns="http://www.w3.org/2000/svg"><circle cx="826.1" cy="3.1" r="0.1" fill="white"/><circle cx="117.6" cy="28.6" r="0.6" fill="white"/><circle cx="271.7" cy="30.7" r="1.7" fill="white"/><circle cx="561.9" cy="34.9" r="0.9" fill="white"/><circle cx="883.1" cy="64.1" r="0.1" fill="white"/><circle cx="226.0" cy="70.0" r="1.0" fill="white"/><circle cx="809.7" cy="86.7" r="0.7" fill="white"/><circle cx="657.9" cy="93.9" r="1.9" fill="white"/><circle cx="905.8" cy="110.8" r="1.8" fill="white"/><circle cx="823.9" cy="114.9" r="0.9" fill="white"/><circle cx="947.7" cy="132.7" r="1.7" fill="white"/><circle cx="402.7" cy="137.7" r="1.7" fill="white"/><circle cx="831.8" cy="152.8" r="1.8" fill="white"/><circle cx="555.5" cy="190.5" r="0.5" fill="white"/><circle cx="944.3" cy="191.3" r="0.3" fill="white"/><circle cx="415.7" cy="209.7" r="1.7" fill="white"/><circle cx="707.7" cy="213.7" r="0.7" fill="white"/><circle cx="447.9" cy="216.9" r="0.9" fill="white"/><circle cx="339.4" cy="227.4" r="0.4" fill="white"/><circle cx="277.0" cy="245.0" r="1.0" fill="white"/><circle cx="533.0" cy="265.0" r="1.0" fill="white"/><circle cx="217.1" cy="271.1" r="0.1" fill="white"/><circle cx="954.3" cy="350.3" r="1.3" fill="white"/><circle cx="746.3" cy="368.3" r="0.3" fill="white"/><circle cx="206.3" cy="428.3" r="1.3" fill="white"/><circle cx="1043.7" cy="431.7" r="1.7" fill="white"/><circle cx="938.4" cy="438.4" r="1.4" fill="white"/><circle cx="144.1" cy="451.1" r="1.1" fill="white"/><circle cx="244.5" cy="492.5" r="0.5" fill="white"/><circle cx="651.3" cy="506.3" r="1.3" fill="white"/><circle cx="45.3" cy="513.3" r="0.3" fill="white"/><circle cx="144.5" cy="544.5" r="0.5" fill="white"/><circle cx="588.6" cy="550.6" r="1.6" fill="white"/><circle cx="618.9" cy="567.9" r="1.9" fill="white"/><circle cx="610.0" cy="585.0" r="2.0" fill="white"/><circle cx="773.2" cy="596.2" r="0.2" fill="white"/><circle cx="667.8" cy="614.8" r="0.8" fill="white"/><circle cx="424.0" cy="638.0" r="1.0" fill="white"/><circle cx="440.1" cy="654.1" r="1.1" fill="white"/><circle cx="329.9" cy="673.9" r="1.9" fill="white"/><circle cx="756.3" cy="728.3" r="1.3" fill="white"/><circle cx="744.9" cy="780.9" r="0.9" fill="white"/><circle cx="911.5" cy="780.5" r="0.5" fill="white"/><circle cx="354.2" cy="819.2" r="0.2" fill="white"/><circle cx="130.8" cy="824.8" r="1.8" fill="white"/><circle cx="892.9" cy="878.9" r="0.9" fill="white"/><circle cx="247.0" cy="980.0" r="2.0" fill="white"/><circle cx="596.5" cy="1002.5" r="0.5" fill="white"/><circle cx="401.9" cy="1008.9" r="1.9" fill="white"/><circle cx="696.8" cy="1017.8" r="1.8" fill="white"/><circle cx="873.3" cy="1019.3" r="0.3" fill="white"/><circle cx="886.4" cy="1057.4" r="1.4" fill="white"/><circle cx="384.5" cy="1075.5" r="1.5" fill="white"/><circle cx="738.8" cy="1153.8" r="0.8" fill="white"/><circle cx="267.0" cy="1170.0" r="1.0" fill="white"/><circle cx="1051.8" cy="1198.8" r="1.8" fill="white"/><circle cx="1020.3" cy="1261.3" r="0.3" fill="white"/><circle cx="468.8" cy="1275.8" r="1.8" fill="white"/><circle cx="529.1" cy="1338.1" r="1.1" fill="white"/><circle cx="958.9" cy="1376.9" r="1.9" fill="white"/><circle cx="657.5" cy="1381.5" r="1.5" fill="white"/><circle cx="197.1" cy="1391.1" r="1.1" fill="white"/><circle cx="333.4" cy="1395.4" r="0.4" fill="white"/><circle cx="448.9" cy="1408.9" r="0.9" fill="white"/><circle cx="189.3" cy="1456.3" r="1.3" fill="white"/><circle cx="206.3" cy="1462.3" r="1.3" fill="white"/><circle cx="405.1" cy="1464.1" r="1.1" fill="white"/><circle cx="359.6" cy="1469.6" r="1.6" fill="white"/><circle cx="1052.9" cy="1471.9" r="0.9" fill="white"/><circle cx="523.8" cy="1475.8" r="0.8" fill="white"/><circle cx="1008.7" cy="1483.7" r="1.7" fill="white"/><circle cx="657.2" cy="1489.2" r="1.2" fill="white"/><circle cx="29.9" cy="1497.9" r="0.9" fill="white"/><circle cx="375.6" cy="1515.6" r="1.6" fill="white"/><circle cx="852.0" cy="1519.0" r="1.0" fill="white"/><circle cx="972.4" cy="1550.4" r="0.4" fill="white"/><circle cx="198.3" cy="1558.3" r="0.3" fill="white"/><circle cx="346.8" cy="1576.8" r="1.8" fill="white"/><circle cx="752.6" cy="1576.6" r="1.6" fill="white"/><circle cx="489.1" cy="1583.1" r="1.1" fill="white"/><circle cx="1076.4" cy="1583.4" r="0.4" fill="white"/><circle cx="1042.9" cy="1589.9" r="0.9" fill="white"/><circle cx="562.7" cy="1621.7" r="0.7" fill="white"/><circle cx="327.6" cy="1649.6" r="1.6" fill="white"/><circle cx="206.7" cy="1658.7" r="0.7" fill="white"/><circle cx="365.4" cy="1678.4" r="0.4" fill="white"/><circle cx="585.9" cy="1686.9" r="0.9" fill="white"/><circle cx="912.2" cy="1687.2" r="0.2" fill="white"/><circle cx="709.4" cy="1691.4" r="1.4" fill="white"/><circle cx="28.3" cy="1695.3" r="0.3" fill="white"/><circle cx="174.9" cy="1699.9" r="1.9" fill="white"/><circle cx="108.6" cy="1703.6" r="1.6" fill="white"/><circle cx="334.7" cy="1712.7" r="0.7" fill="white"/><circle cx="913.8" cy="1745.8" r="1.8" fill="white"/><circle cx="888.4" cy="1762.4" r="1.4" fill="white"/><circle cx="330.8" cy="1763.8" r="1.8" fill="white"/><circle cx="449.5" cy="1768.5" r="0.5" fill="white"/><circle cx="451.4" cy="1773.4" r="0.4" fill="white"/><circle cx="609.9" cy="1778.9" r="1.9" fill="white"/><circle cx="903.8" cy="1796.8" r="0.8" fill="white"/><circle cx="130.7" cy="1819.7" r="1.7" fill="white"/><circle cx="329.8" cy="1822.8" r="0.8" fill="white"/><circle cx="203.2" cy="1836.2" r="1.2" fill="white"/><circle cx="570.2" cy="1856.2" r="0.2" fill="white"/><circle cx="651.5" cy="1879.5" r="0.5" fill="white"/><circle cx="732.7" cy="1906.7" r="1.7" fill="white"/><circle cx="375.6" cy="1908.6" r="0.6" fill="white"/><circle cx="348.3" cy="1918.3" r="0.3" fill="white"/><circle cx="813.6" cy="1921.6" r="0.6" fill="white"/><circle cx="35.2" cy="1948.2" r="0.2" fill="white"/><circle cx="44.3" cy="1980.3" r="0.3" fill="white"/><circle cx="908.8" cy="2001.8" r="0.8" fill="white"/><circle cx="25.2" cy="2038.2" r="1.2" fill="white"/><circle cx="381.5" cy="2041.5" r="1.5" fill="white"/><circle cx="194.5" cy="2043.5" r="1.5" fill="white"/><circle cx="162.2" cy="2060.2" r="0.2" fill="white"/><circle cx="520.9" cy="2062.9" r="1.9" fill="white"/><circle cx="736.5" cy="2067.5" r="0.5" fill="white"/><circle cx="1067.1" cy="2087.1" r="1.1" fill="white"/><circle cx="250.0" cy="2100.0" r="1.0" fill="white"/><circle cx="496.9" cy="2102.9" r="0.9" fill="white"/><circle cx="766.9" cy="2115.9" r="0.9" fill="white"/><circle cx="194.8" cy="2128.8" r="1.8" fill="white"/><circle cx="20.5" cy="2131.5" r="0.5" fill="white"/><circle cx="660.4" cy="2135.4" r="1.4" fill="white"/><circle cx="698.4" cy="2138.4" r="0.4" fill="white"/><circle cx="485.0" cy="2143.0" r="1.0" fill="white"/><circle cx="854.0" cy="2160.0" r="1.0" fill="white"/><circle cx="411.4" cy="2167.4" r="1.4" fill="white"/><circle cx="378.6" cy="2220.6" r="1.6" fill="white"/><circle cx="988.0" cy="2227.0" r="2.0" fill="white"/><circle cx="433.7" cy="2229.7" r="0.7" fill="white"/><circle cx="566.8" cy="2229.8" r="0.8" fill="white"/><circle cx="592.9" cy="2231.9" r="0.9" fill="white"/><circle cx="1073.4" cy="2256.4" r="0.4" fill="white"/><circle cx="387.2" cy="2267.2" r="0.2" fill="white"/><circle cx="1020.8" cy="2297.8" r="0.8" fill="white"/><circle cx="1073.4" cy="2301.4" r="0.4" fill="white"/><circle cx="214.9" cy="2315.9" r="1.9" fill="white"/><circle cx="905.3" cy="2322.3" r="1.3" fill="white"/><circle cx="656.4" cy="2326.4" r="1.4" fill="white"/><circle cx="408.7" cy="2350.7" r="1.7" fill="white"/><circle cx="961.0" cy="2371.0" r="1.0" fill="white"/><circle cx="901.4" cy="2395.4" r="1.4" fill="white"/><circle cx="876.6" cy="2427.6" r="0.6" fill="white"/><circle cx="347.1" cy="2445.1" r="1.1" fill="white"/><circle cx="840.9" cy="2454.9" r="0.9" fill="white"/><circle cx="252.8" cy="2457.8" r="1.8" fill="white"/><circle cx="160.0" cy="2459.0" r="1.0" fill="white"/><circle cx="315.9" cy="2521.9" r="0.9" fill="white"/><circle cx="776.6" cy="2530.6" r="1.6" fill="white"/><circle cx="1026.8" cy="2568.8" r="0.8" fill="white"/><circle cx="927.3" cy="2588.3" r="1.3" fill="white"/><circle cx="72.7" cy="2593.7" r="1.7" fill="white"/><circle cx="69.6" cy="2613.6" r="1.6" fill="white"/><circle cx="674.7" cy="2637.7" r="0.7" fill="white"/><circle cx="942.2" cy="2674.2" r="0.2" fill="white"/><circle cx="1014.8" cy="2707.8" r="1.8" fill="white"/><circle cx="430.2" cy="2708.2" r="0.2" fill="white"/><circle cx="790.9" cy="2712.9" r="0.9" fill="white"/><circle cx="836.8" cy="2712.8" r="0.8" fill="white"/><circle cx="217.6" cy="2722.6" r="1.6" fill="white"/><circle cx="876.8" cy="2767.8" r="1.8" fill="white"/><circle cx="340.6" cy="2768.6" r="0.6" fill="white"/><circle cx="26.7" cy="2770.7" r="0.7" fill="white"/><circle cx="123.9" cy="2774.9" r="0.9" fill="white"/><circle cx="324.4" cy="2777.4" r="1.4" fill="white"/><circle cx="1030.4" cy="2796.4" r="1.4" fill="white"/><circle cx="629.0" cy="2807.0" r="2.0" fill="white"/><circle cx="1043.5" cy="2816.5" r="1.5" fill="white"/><circle cx="343.4" cy="2818.4" r="1.4" fill="white"/><circle cx="843.3" cy="2831.3" r="0.3" fill="white"/><circle cx="585.5" cy="2853.5" r="0.5" fill="white"/><circle cx="340.2" cy="2860.2" r="1.2" fill="white"/><circle cx="184.9" cy="2879.9" r="0.9" fill="white"/><circle cx="794.0" cy="2889.0" r="1.0" fill="white"/><circle cx="661.7" cy="2896.7" r="1.7" fill="white"/><circle cx="473.6" cy="2897.6" r="0.6" fill="white"/><circle cx="1017.0" cy="2924.0" r="2.0" fill="white"/><circle cx="771.6" cy="2931.6" r="1.6" fill="white"/><circle cx="566.4" cy="2933.4" r="1.4" fill="white"/><circle cx="761.0" cy="2940.0" r="1.0" fill="white"/><circle cx="234.2" cy="2956.2" r="0.2" fill="white"/><circle cx="661.8" cy="3009.8" r="1.8" fill="white"/><circle cx="846.8" cy="3022.8" r="1.8" fill="white"/><circle cx="578.8" cy="3024.8" r="0.8" fill="white"/><circle cx="1070.5" cy="3036.5" r="0.5" fill="white"/><circle cx="729.6" cy="3042.6" r="1.6" fill="white"/><circle cx="87.0" cy="3063.0" r="2.0" fill="white"/><circle cx="544.3" cy="3097.3" r="1.3" fill="white"/><circle cx="621.0" cy="3103.0" r="1.0" fill="white"/><circle cx="641.6" cy="3131.6" r="1.6" fill="white"/><circle cx="594.1" cy="3136.1" r="1.1" fill="white"/><circle cx="886.6" cy="3156.6" r="0.6" fill="white"/><circle cx="452.2" cy="3172.2" r="1.2" fill="white"/><circle cx="902.3" cy="3184.3" r="0.3" fill="white"/><circle cx="205.8" cy="3189.8" r="1.8" fill="white"/><circle cx="1061.4" cy="3201.4" r="1.4" fill="white"/><circle cx="587.9" cy="3227.9" r="0.9" fill="white"/><circle cx="959.5" cy="3243.5" r="0.5" fill="white"/><circle cx="153.8" cy="3250.8" r="1.8" fill="white"/><circle cx="335.6" cy="3252.6" r="0.6" fill="white"/><circle cx="107.5" cy="3262.5" r="0.5" fill="white"/><circle cx="345.5" cy="3281.5" r="0.5" fill="white"/><circle cx="277.2" cy="3323.2" r="0.2" fill="white"/><circle cx="340.9" cy="3354.9" r="1.9" fill="white"/><circle cx="534.2" cy="3368.2" r="1.2" fill="white"/><circle cx="672.7" cy="3400.7" r="1.7" fill="white"/><circle cx="393.2" cy="3416.2" r="1.2" fill="white"/><circle cx="874.2" cy="3477.2" r="0.2" fill="white"/><circle cx="622.4" cy="3486.4" r="1.4" fill="white"/><circle cx="547.7" cy="3531.7" r="1.7" fill="white"/><circle cx="842.2" cy="3530.2" r="0.2" fill="white"/><circle cx="1013.9" cy="3533.9" r="1.9" fill="white"/><circle cx="693.5" cy="3541.5" r="1.5" fill="white"/><circle cx="514.7" cy="3557.7" r="0.7" fill="white"/><circle cx="114.5" cy="3567.5" r="1.5" fill="white"/><circle cx="377.2" cy="3571.2" r="0.2" fill="white"/><circle cx="650.6" cy="3587.6" r="0.6" fill="white"/><circle cx="878.8" cy="3634.8" r="1.8" fill="white"/><circle cx="489.9" cy="3639.9" r="1.9" fill="white"/><circle cx="110.4" cy="3651.4" r="1.4" fill="white"/><circle cx="205.5" cy="3683.5" r="1.5" fill="white"/><circle cx="231.9" cy="3694.9" r="0.9" fill="white"/><circle cx="218.9" cy="3696.9" r="0.9" fill="white"/><circle cx="524.8" cy="3734.8" r="0.8" fill="white"/><circle cx="387.4" cy="3735.4" r="0.4" fill="white"/><circle cx="612.0" cy="3762.0" r="2.0" fill="white"/><circle cx="231.7" cy="3799.7" r="1.7" fill="white"/><circle cx="38.4" cy="3816.4" r="0.4" fill="white"/><circle cx="143.7" cy="3833.7" r="0.7" fill="white"/></svg>