<svg width="1080" height="3840" xmlns="http://www.w3.org/2000/svg"><circle cx="949.14" cy="18.14" r="0.14" fill="white"/><circle cx="941.19" cy="21.19" r="0.19" fill="white"/><circle cx="139.04" cy="26.04" r="0.04" fill="white"/><circle cx="837.15" cy="55.15" r="0.15" fill="white"/><circle cx="294.04" cy="80.04" r="0.04" fill="white"/><circle cx="735.1" cy="84.1" r="0.1" fill="white"/><circle cx="1051.09" cy="85.09" r="0.09" fill="white"/><circle cx="311.02" cy="90.02" r="0.02" fill="white"/><circle cx="837.2" cy="150.2" r="0.2" fill="white"/><circle cx="141.16" cy="159.16" r="0.16" fill="white"/><circle cx="185.03" cy="207.03" r="0.03" fill="white"/><circle cx="793.06" cy="270.06" r="0.06" fill="white"/><circle cx="1002.06" cy="280.06" r="0.06" fill="white"/><circle cx="606.06" cy="295.06" r="0.06" fill="white"/><circle cx="460.1" cy="306.1" r="0.1" fill="white"/><circle cx="631.09" cy="323.09" r="0.09" fill="white"/><circle cx="375.01" cy="363.01" r="0.01" fill="white"/><circle cx="119.06" cy="399.06" r="0.06" fill="white"/><circle cx="481.2" cy="418.2" r="0.2" fill="white"/><circle cx="455.14" cy="430.14" r="0.14" fill="white"/><circle cx="505.15" cy="447.15" r="0.15" fill="white"/><circle cx="200.03" cy="466.03" r="0.03" fill="white"/><circle cx="651.06" cy="484.06" r="0.06" fill="white"/><circle cx="976.12" cy="505.12" r="0.12" fill="white"/><circle cx="253.09" cy="584.09" r="0.09" fill="white"/><circle cx="970.09" cy="617.09" r="0.09" fill="white"/><circle cx="384.12" cy="626.12" r="0.12" fill="white"/><circle cx="599.03" cy="634.03" r="0.03" fill="white"/><circle cx="419.03" cy="637.03" r="0.03" fill="white"/><circle cx="205.06" cy="639.06" r="0.06" fill="white"/><circle cx="825.11" cy="668.11" r="0.11" fill="white"/><circle cx="945.04" cy="738.04" r="0.04" fill="white"/><circle cx="281.1" cy="763.1" r="0.1" fill="white"/><circle cx="376.1" cy="767.1" r="0.1" fill="white"/><circle cx="63.14" cy="793.14" r="0.14" fill="white"/><circle cx="946.01" cy="946.01" r="0.01" fill="white"/><circle cx="288.13" cy="953.13" r="0.13" fill="white"/><circle cx="508.08" cy="958.08" r="0.08" fill="white"/><circle cx="369.03" cy="1010.03" r="0.03" fill="white"/><circle cx="885.02" cy="1023.02" r="0.02" fill="white"/><circle cx="77.2" cy="1045.2" r="0.2" fill="white"/><circle cx="698.05" cy="1070.05" r="0.05" fill="white"/><circle cx="540.18" cy="1071.18" r="0.18" fill="white"/><circle cx="617.17" cy="1093.17" r="0.17" fill="white"/><circle cx="511.04" cy="1105.04" r="0.04" fill="white"/><circle cx="188.19" cy="1113.19" r="0.19" fill="white"/><circle cx="1075.19" cy="1114.19" r="0.19" fill="white"/><circle cx="1059.03" cy="1133.03" r="0.03" fill="white"/><circle cx="526.18" cy="1146.18" r="0.18" fill="white"/><circle cx="773.17" cy="1156.17" r="0.17" fill="white"/><circle cx="901.08" cy="1163.08" r="0.08" fill="white"/><circle cx="283.06" cy="1306.06" r="0.06" fill="white"/><circle cx="379.07" cy="1309.07" r="0.07" fill="white"/><circle cx="321.07" cy="1327.07" r="0.07" fill="white"/><circle cx="517.13" cy="1331.13" r="0.13" fill="white"/><circle cx="861.02" cy="1357.02" r="0.02" fill="white"/><circle cx="760.08" cy="1403.08" r="0.08" fill="white"/><circle cx="561.15" cy="1457.15" r="0.15" fill="white"/><circle cx="735.05" cy="1536.05" r="0.05" fill="white"/><circle cx="275.11" cy="1556.11" r="0.11" fill="white"/><circle cx="721.07" cy="1564.07" r="0.07" fill="white"/><circle cx="1033.06" cy="1568.06" r="0.06" fill="white"/><circle cx="135.11" cy="1643.11" r="0.11" fill="white"/><circle cx="454.09" cy="1664.09" r="0.09" fill="white"/><circle cx="333.13" cy="1681.13" r="0.13" fill="white"/><circle cx="780.05" cy="1691.05" r="0.05" fill="white"/><circle cx="771.12" cy="1711.12" r="0.12" fill="white"/><circle cx="666.16" cy="1748.16" r="0.16" fill="white"/><circle cx="238.06" cy="1750.06" r="0.06" fill="white"/><circle cx="1007.09" cy="1775.09" r="0.09" fill="white"/><circle cx="997.16" cy="1784.16" r="0.16" fill="white"/><circle cx="381.04" cy="1790.04" r="0.04" fill="white"/><circle cx="453.19" cy="1819.19" r="0.19" fill="white"/><circle cx="348.13" cy="1830.13" r="0.13" fill="white"/><circle cx="1060.05" cy="1831.05" r="0.05" fill="white"/><circle cx="928.08" cy="1862.08" r="0.08" fill="white"/><circle cx="1044.11" cy="1880.11" r="0.11" fill="white"/><circle cx="8.15" cy="1893.15" r="0.15" fill="white"/><circle cx="1000.08" cy="1916.08" r="0.08" fill="white"/><circle cx="176.06" cy="1935.06" r="0.06" fill="white"/><circle cx="689.17" cy="1995.17" r="0.17" fill="white"/><circle cx="725.16" cy="2007.16" r="0.16" fill="white"/><circle cx="940.16" cy="2013.16" r="0.16" fill="white"/><circle cx="919.07" cy="2021.07" r="0.07" fill="white"/><circle cx="232.02" cy="2039.02" r="0.02" fill="white"/><circle cx="848.14" cy="2079.14" r="0.14" fill="white"/><circle cx="397.08" cy="2098.08" r="0.08" fill="white"/><circle cx="735.08" cy="2113.08" r="0.08" fill="white"/><circle cx="903.04" cy="2114.04" r="0.04" fill="white"/><circle cx="231.16" cy="2133.16" r="0.16" fill="white"/><circle cx="979.16" cy="2156.16" r="0.16" fill="white"/><circle cx="379.09" cy="2220.09" r="0.09" fill="white"/><circle cx="363.12" cy="2235.12" r="0.12" fill="white"/><circle cx="368.05" cy="2235.05" r="0.05" fill="white"/><circle cx="990.11" cy="2235.11" r="0.11" fill="white"/><circle cx="282.13" cy="2374.13" r="0.13" fill="white"/><circle cx="623.17" cy="2378.17" r="0.17" fill="white"/><circle cx="282.12" cy="2391.12" r="0.12" fill="white"/><circle cx="581.11" cy="2400.11" r="0.11" fill="white"/><circle cx="104.17" cy="2436.17" r="0.17" fill="white"/><circle cx="552.19" cy="2474.19" r="0.19" fill="white"/><circle cx="688.08" cy="2511.08" r="0.08" fill="white"/><circle cx="1004.04" cy="2511.04" r="0.04" fill="white"/><circle cx="539.18" cy="2527.18" r="0.18" fill="white"/><circle cx="236.08" cy="2533.08" r="0.08" fill="white"/><circle cx="200.15" cy="2547.15" r="0.15" fill="white"/><circle cx="458.06" cy="2582.06" r="0.06" fill="white"/><circle cx="77.04" cy="2590.04" r="0.04" fill="white"/><circle cx="31.13" cy="2625.13" r="0.13" fill="white"/><circle cx="316.11" cy="2630.11" r="0.11" fill="white"/><circle cx="249.17" cy="2632.17" r="0.17" fill="white"/><circle cx="929.15" cy="2640.15" r="0.15" fill="white"/><circle cx="185.14" cy="2680.14" r="0.14" fill="white"/><circle cx="95.12" cy="2683.12" r="0.12" fill="white"/><circle cx="282.17" cy="2683.17" r="0.17" fill="white"/><circle cx="898.13" cy="2683.13" r="0.13" fill="white"/><circle cx="370.13" cy="2688.13" r="0.13" fill="white"/><circle cx="1008.18" cy="2693.18" r="0.18" fill="white"/><circle cx="224.11" cy="2697.11" r="0.11" fill="white"/><circle cx="748.14" cy="2704.14" r="0.14" fill="white"/><circle cx="924.15" cy="2709.15" r="0.15" fill="white"/><circle cx="1021.17" cy="2742.17" r="0.17" fill="white"/><circle cx="569.17" cy="2774.17" r="0.17" fill="white"/><circle cx="504.07" cy="2789.07" r="0.07" fill="white"/><circle cx="549.03" cy="2824.03" r="0.03" fill="white"/><circle cx="539.18" cy="2830.18" r="0.18" fill="white"/><circle cx="146.14" cy="2833.14" r="0.14" fill="white"/><circle cx="755.06" cy="2848.06" r="0.06" fill="white"/><circle cx="1066.04" cy="2875.04" r="0.04" fill="white"/><circle cx="78.02" cy="2904.02" r="0.02" fill="white"/><circle cx="901.15" cy="2922.15" r="0.15" fill="white"/><circle cx="941.17" cy="3020.17" r="0.17" fill="white"/><circle cx="975.06" cy="3055.06" r="0.06" fill="white"/><circle cx="828.13" cy="3117.13" r="0.13" fill="white"/><circle cx="432.15" cy="3137.15" r="0.15" fill="white"/><circle cx="550.05" cy="3157.05" r="0.05" fill="white"/><circle cx="648.17" cy="3191.17" r="0.17" fill="white"/><circle cx="355.09" cy="3218.09" r="0.09" fill="white"/><circle cx="688.07" cy="3268.07" r="0.07" fill="white"/><circle cx="725.19" cy="3270.19" r="0.19" fill="white"/><circle cx="526.08" cy="3271.08" r="0.08" fill="white"/><circle cx="1014.19" cy="3274.19" r="0.19" fill="white"/><circle cx="327.03" cy="3276.03" r="0.03" fill="white"/><circle cx="614.15" cy="3309.15" r="0.15" fill="white"/><circle cx="682.09" cy="3313.09" r="0.09" fill="white"/><circle cx="313.08" cy="3314.08" r="0.08" fill="white"/><circle cx="573.02" cy="3331.02" r="0.02" fill="white"/><circle cx="12.07" cy="3368.07" r="0.07" fill="white"/><circle cx="710.14" cy="3406.14" r="0.14" fill="white"/><circle cx="300.03" cy="3415.03" r="0.03" fill="white"/><circle cx="744.11" cy="3415.11" r="0.11" fill="white"/><circle cx="332.05" cy="3419.05" r="0.05" fill="white"/><circle cx="536.11" cy="3443.11" r="0.11" fill="white"/><circle cx="626.15" cy="3461.15" r="0.15" fill="white"/><circle cx="829.06" cy="3468.06" r="0.06" fill="white"/><circle cx="330.18" cy="3507.18" r="0.18" fill="white"/><circle cx="346.13" cy="3523.13" r="0.13" fill="white"/><circle cx="727.2" cy="3545.2" r="0.2" fill="white"/><circle cx="375.16" cy="3550.16" r="0.16" fill="white"/><circle cx="91.11" cy="3576.11" r="0.11" fill="white"/><circle cx="833.19" cy="3602.19" r="0.19" fill="white"/><circle cx="614.18" cy="3604.18" r="0.18" fill="white"/><circle cx="335.12" cy="3623.12" r="0.12" fill="white"/><circle cx="940.14" cy="3698.14" r="0.14" fill="white"/><circle cx="305.11" cy="3721.11" r="0.11" fill="white"/><circle cx="325.07" cy="3721.07" r="0.07" fill="white"/><circle cx="879.03" cy="3729.03" r="0.03" fill="white"/><circle cx="765.07" cy="3732.07" r="0.07" fill="white"/><circle cx="736.19" cy="3755.19" r="0.19" fill="white"/><circle cx="188.14" cy="3757.14" r="0.14" fill="white"/><circle cx="748.03" cy="3757.03" r="0.03" fill="white"/><circle cx="422.04" cy="3759.04" r="0.04" fill="white"/><circle cx="140.12" cy="3768.12" r="0.12" fill="white"/><circle cx="194.13" cy="3778.13" r="0.13" fill="white"/><circle cx="56.02" cy="3780.02" r="0.02" fill="white"/><circle cx="741.02" cy="3808.02" r="0.02" fill="white"/></svg>