<svg width="1080" height="3840" xmlns="http://www.w3.org/2000/svg"><circle cx="390.1" cy="1.1" r="0.1" fill="white"/><circle cx="900.06" cy="2.06" r="0.06" fill="white"/><circle cx="703.1" cy="11.1" r="0.1" fill="white"/><circle cx="121.09" cy="15.09" r="0.09" fill="white"/><circle cx="587.02" cy="25.02" r="0.02" fill="white"/><circle cx="484.18" cy="41.18" r="0.18" fill="white"/><circle cx="559.15" cy="48.15" r="0.15" fill="white"/><circle cx="524.12" cy="67.12" r="0.12" fill="white"/><circle cx="658.11" cy="72.11" r="0.11" fill="white"/><circle cx="975.07" cy="72.07" r="0.07" fill="white"/><circle cx="20.17" cy="77.17" r="0.17" fill="white"/><circle cx="481.17" cy="79.17" r="0.17" fill="white"/><circle cx="213.03" cy="88.03" r="0.03" fill="white"/><circle cx="691.1" cy="98.1" r="0.1" fill="white"/><circle cx="360.15" cy="108.15" r="0.15" fill="white"/><circle cx="703.04" cy="153.04" r="0.04" fill="white"/><circle cx="445.12" cy="157.12" r="0.12" fill="white"/><circle cx="218.04" cy="158.04" r="0.04" fill="white"/><circle cx="297.12" cy="163.12" r="0.12" fill="white"/><circle cx="201.14" cy="165.14" r="0.14" fill="white"/><circle cx="166.2" cy="167.2" r="0.2" fill="white"/><circle cx="641.13" cy="174.13" r="0.13" fill="white"/><circle cx="580.04" cy="185.04" r="0.04" fill="white"/><circle cx="594.04" cy="186.04" r="0.04" fill="white"/><circle cx="424.14" cy="206.14" r="0.14" fill="white"/><circle cx="553.08" cy="233.08" r="0.08" fill="white"/><circle cx="717.03" cy="236.03" r="0.03" fill="white"/><circle cx="758.1" cy="240.1" r="0.1" fill="white"/><circle cx="924.06" cy="248.06" r="0.06" fill="white"/><circle cx="757.12" cy="259.12" r="0.12" fill="white"/><circle cx="306.19" cy="269.19" r="0.19" fill="white"/><circle cx="339.17" cy="281.17" r="0.17" fill="white"/><circle cx="855.19" cy="289.19" r="0.19" fill="white"/><circle cx="622.13" cy="293.13" r="0.13" fill="white"/><circle cx="722.12" cy="325.12" r="0.12" fill="white"/><circle cx="673.2" cy="332.2" r="0.2" fill="white"/><circle cx="260.11" cy="335.11" r="0.11" fill="white"/><circle cx="1035.17" cy="349.17" r="0.17" fill="white"/><circle cx="975.07" cy="353.07" r="0.07" fill="white"/><circle cx="1003.19" cy="379.19" r="0.19" fill="white"/><circle cx="825.12" cy="380.12" r="0.12" fill="white"/><circle cx="3.02" cy="390.02" r="0.02" fill="white"/><circle cx="938.05" cy="431.05" r="0.05" fill="white"/><circle cx="588.07" cy="437.07" r="0.07" fill="white"/><circle cx="1069.19" cy="447.19" r="0.19" fill="white"/><circle cx="721.04" cy="486.04" r="0.04" fill="white"/><circle cx="135.07" cy="489.07" r="0.07" fill="white"/><circle cx="394.11" cy="497.11" r="0.11" fill="white"/><circle cx="1076.17" cy="504.17" r="0.17" fill="white"/><circle cx="601.12" cy="506.12" r="0.12" fill="white"/><circle cx="539.04" cy="523.04" r="0.04" fill="white"/><circle cx="145.1" cy="537.1" r="0.1" fill="white"/><circle cx="741.02" cy="582.02" r="0.02" fill="white"/><circle cx="444.18" cy="588.18" r="0.18" fill="white"/><circle cx="369.05" cy="612.05" r="0.05" fill="white"/><circle cx="526.09" cy="622.09" r="0.09" fill="white"/><circle cx="480.14" cy="629.14" r="0.14" fill="white"/><circle cx="9.18" cy="642.18" r="0.18" fill="white"/><circle cx="459.19" cy="643.19" r="0.19" fill="white"/><circle cx="483.15" cy="655.15" r="0.15" fill="white"/><circle cx="502.1" cy="668.1" r="0.1" fill="white"/><circle cx="174.03" cy="673.03" r="0.03" fill="white"/><circle cx="887.03" cy="683.03" r="0.03" fill="white"/><circle cx="517.17" cy="697.17" r="0.17" fill="white"/><circle cx="594.11" cy="697.11" r="0.11" fill="white"/><circle cx="717.17" cy="701.17" r="0.17" fill="white"/><circle cx="568.11" cy="702.11" r="0.11" fill="white"/><circle cx="1056.15" cy="712.15" r="0.15" fill="white"/><circle cx="319.18" cy="733.18" r="0.18" fill="white"/><circle cx="1056.17" cy="733.17" r="0.17" fill="white"/><circle cx="57.11" cy="738.11" r="0.11" fill="white"/><circle cx="992.17" cy="744.17" r="0.17" fill="white"/><circle cx="1056.15" cy="763.15" r="0.15" fill="white"/><circle cx="608.12" cy="766.12" r="0.12" fill="white"/><circle cx="32.13" cy="768.13" r="0.13" fill="white"/><circle cx="619.13" cy="769.13" r="0.13" fill="white"/><circle cx="305.05" cy="781.05" r="0.05" fill="white"/><circle cx="401.07" cy="791.07" r="0.07" fill="white"/><circle cx="163.04" cy="795.04" r="0.04" fill="white"/><circle cx="75.16" cy="796.16" r="0.16" fill="white"/><circle cx="779.05" cy="800.05" r="0.05" fill="white"/><circle cx="608.13" cy="803.13" r="0.13" fill="white"/><circle cx="662.05" cy="807.05" r="0.05" fill="white"/><circle cx="710.05" cy="812.05" r="0.05" fill="white"/><circle cx="719.03" cy="815.03" r="0.03" fill="white"/><circle cx="13.09" cy="851.09" r="0.09" fill="white"/><circle cx="310.08" cy="851.08" r="0.08" fill="white"/><circle cx="437.11" cy="857.11" r="0.11" fill="white"/><circle cx="216.1" cy="861.1" r="0.1" fill="white"/><circle cx="683.18" cy="868.18" r="0.18" fill="white"/><circle cx="506.03" cy="870.03" r="0.03" fill="white"/><circle cx="851.08" cy="874.08" r="0.08" fill="white"/><circle cx="1008.08" cy="881.08" r="0.08" fill="white"/><circle cx="462.12" cy="882.12" r="0.12" fill="white"/><circle cx="401.18" cy="890.18" r="0.18" fill="white"/><circle cx="518.08" cy="896.08" r="0.08" fill="white"/><circle cx="926.08" cy="897.08" r="0.08" fill="white"/><circle cx="635.04" cy="901.04" r="0.04" fill="white"/><circle cx="736.03" cy="910.03" r="0.03" fill="white"/><circle cx="224.04" cy="932.04" r="0.04" fill="white"/><circle cx="139.15" cy="933.15" r="0.15" fill="white"/><circle cx="507.11" cy="954.11" r="0.11" fill="white"/><circle cx="554.16" cy="954.16" r="0.16" fill="white"/><circle cx="1001.15" cy="958.15" r="0.15" fill="white"/><circle cx="926.11" cy="981.11" r="0.11" fill="white"/><circle cx="805.07" cy="990.07" r="0.07" fill="white"/><circle cx="707.14" cy="995.14" r="0.14" fill="white"/><circle cx="176.13" cy="1006.13" r="0.13" fill="white"/><circle cx="1004.07" cy="1029.07" r="0.07" fill="white"/><circle cx="120.11" cy="1032.11" r="0.11" fill="white"/><circle cx="1077.05" cy="1034.05" r="0.05" fill="white"/><circle cx="257.12" cy="1035.12" r="0.12" fill="white"/><circle cx="904.19" cy="1036.19" r="0.19" fill="white"/><circle cx="863.07" cy="1041.07" r="0.07" fill="white"/><circle cx="1056.13" cy="1041.13" r="0.13" fill="white"/><circle cx="692.19" cy="1067.19" r="0.19" fill="white"/><circle cx="903.1" cy="1075.1" r="0.1" fill="white"/><circle cx="343.12" cy="1080.12" r="0.12" fill="white"/><circle cx="586.06" cy="1083.06" r="0.06" fill="white"/><circle cx="1068.18" cy="1101.18" r="0.18" fill="white"/><circle cx="67.05" cy="1105.05" r="0.05" fill="white"/><circle cx="620.05" cy="1112.05" r="0.05" fill="white"/><circle cx="349.17" cy="1119.17" r="0.17" fill="white"/><circle cx="608.04" cy="1123.04" r="0.04" fill="white"/><circle cx="458.15" cy="1138.15" r="0.15" fill="white"/><circle cx="232.14" cy="1151.14" r="0.14" fill="white"/><circle cx="585.12" cy="1151.12" r="0.12" fill="white"/><circle cx="693.18" cy="1160.18" r="0.18" fill="white"/><circle cx="57.13" cy="1171.13" r="0.13" fill="white"/><circle cx="740.06" cy="1193.06" r="0.06" fill="white"/><circle cx="276.02" cy="1194.02" r="0.02" fill="white"/><circle cx="755.17" cy="1204.17" r="0.17" fill="white"/><circle cx="649.06" cy="1211.06" r="0.06" fill="white"/><circle cx="210.17" cy="1223.17" r="0.17" fill="white"/><circle cx="170.07" cy="1225.07" r="0.07" fill="white"/><circle cx="783.02" cy="1238.02" r="0.02" fill="white"/><circle cx="606.07" cy="1239.07" r="0.07" fill="white"/><circle cx="554.03" cy="1241.03" r="0.03" fill="white"/><circle cx="646.16" cy="1245.16" r="0.16" fill="white"/><circle cx="727.14" cy="1247.14" r="0.14" fill="white"/><circle cx="725.13" cy="1248.13" r="0.13" fill="white"/><circle cx="214.03" cy="1250.03" r="0.03" fill="white"/><circle cx="726.1" cy="1257.1" r="0.1" fill="white"/><circle cx="1011.12" cy="1267.12" r="0.12" fill="white"/><circle cx="598.2" cy="1268.2" r="0.2" fill="white"/><circle cx="1022.04" cy="1273.04" r="0.04" fill="white"/><circle cx="555.17" cy="1286.17" r="0.17" fill="white"/><circle cx="30.12" cy="1292.12" r="0.12" fill="white"/><circle cx="202.08" cy="1293.08" r="0.08" fill="white"/><circle cx="996.17" cy="1311.17" r="0.17" fill="white"/><circle cx="610.03" cy="1315.03" r="0.03" fill="white"/><circle cx="598.07" cy="1316.07" r="0.07" fill="white"/><circle cx="1046.15" cy="1326.15" r="0.15" fill="white"/><circle cx="349.01" cy="1332.01" r="0.01" fill="white"/><circle cx="699.17" cy="1333.17" r="0.17" fill="white"/><circle cx="50.01" cy="1337.01" r="0.01" fill="white"/><circle cx="670.17" cy="1342.17" r="0.17" fill="white"/><circle cx="557.04" cy="1361.04" r="0.04" fill="white"/><circle cx="270.07" cy="1378.07" r="0.07" fill="white"/><circle cx="560.09" cy="1418.09" r="0.09" fill="white"/><circle cx="510.15" cy="1426.15" r="0.15" fill="white"/><circle cx="318.09" cy="1438.09" r="0.09" fill="white"/><circle cx="552.07" cy="1440.07" r="0.07" fill="white"/><circle cx="482.13" cy="1445.13" r="0.13" fill="white"/><circle cx="743.19" cy="1458.19" r="0.19" fill="white"/><circle cx="918.17" cy="1460.17" r="0.17" fill="white"/><circle cx="498.05" cy="1493.05" r="0.05" fill="white"/><circle cx="201.06" cy="1494.06" r="0.06" fill="white"/><circle cx="288.03" cy="1498.03" r="0.03" fill="white"/><circle cx="773.2" cy="1517.2" r="0.2" fill="white"/><circle cx="984.18" cy="1518.18" r="0.18" fill="white"/><circle cx="76.02" cy="1522.02" r="0.02" fill="white"/><circle cx="757.02" cy="1528.02" r="0.02" fill="white"/><circle cx="244.08" cy="1530.08" r="0.08" fill="white"/><circle cx="340.02" cy="1532.02" r="0.02" fill="white"/><circle cx="299.03" cy="1543.03" r="0.03" fill="white"/><circle cx="651.19" cy="1548.19" r="0.19" fill="white"/><circle cx="209.06" cy="1549.06" r="0.06" fill="white"/><circle cx="650.06" cy="1561.06" r="0.06" fill="white"/><circle cx="118.15" cy="1562.15" r="0.15" fill="white"/><circle cx="315.11" cy="1576.11" r="0.11" fill="white"/><circle cx="306.17" cy="1583.17" r="0.17" fill="white"/><circle cx="61.02" cy="1603.02" r="0.02" fill="white"/><circle cx="162.08" cy="1604.08" r="0.08" fill="white"/><circle cx="367.06" cy="1615.06" r="0.06" fill="white"/><circle cx="768.05" cy="1628.05" r="0.05" fill="white"/><circle cx="272.16" cy="1642.16" r="0.16" fill="white"/><circle cx="307.06" cy="1648.06" r="0.06" fill="white"/><circle cx="1039.09" cy="1705.09" r="0.09" fill="white"/><circle cx="941.11" cy="1717.11" r="0.11" fill="white"/><circle cx="561.17" cy="1727.17" r="0.17" fill="white"/><circle cx="521.12" cy="1746.12" r="0.12" fill="white"/><circle cx="1004.14" cy="1760.14" r="0.14" fill="white"/><circle cx="846.17" cy="1771.17" r="0.17" fill="white"/><circle cx="1017.04" cy="1773.04" r="0.04" fill="white"/><circle cx="407.02" cy="1781.02" r="0.02" fill="white"/><circle cx="135.19" cy="1822.19" r="0.19" fill="white"/><circle cx="23.1" cy="1823.1" r="0.1" fill="white"/><circle cx="1010.12" cy="1829.12" r="0.12" fill="white"/><circle cx="236.01" cy="1837.01" r="0.01" fill="white"/><circle cx="388.16" cy="1861.16" r="0.16" fill="white"/><circle cx="701.19" cy="1861.19" r="0.19" fill="white"/><circle cx="1035.17" cy="1869.17" r="0.17" fill="white"/><circle cx="1067.18" cy="1876.18" r="0.18" fill="white"/><circle cx="660.01" cy="1894.01" r="0.01" fill="white"/><circle cx="1069.15" cy="1910.15" r="0.15" fill="white"/><circle cx="949.02" cy="1930.02" r="0.02" fill="white"/><circle cx="259.05" cy="1937.05" r="0.05" fill="white"/><circle cx="978.18" cy="1937.18" r="0.18" fill="white"/><circle cx="174.16" cy="1938.16" r="0.16" fill="white"/><circle cx="499.16" cy="1954.16" r="0.16" fill="white"/><circle cx="569.02" cy="1956.02" r="0.02" fill="white"/><circle cx="383.01" cy="1957.01" r="0.01" fill="white"/><circle cx="573.18" cy="1969.18" r="0.18" fill="white"/><circle cx="99.12" cy="1973.12" r="0.12" fill="white"/><circle cx="573.07" cy="1977.07" r="0.07" fill="white"/><circle cx="965.06" cy="1980.06" r="0.06" fill="white"/><circle cx="1017.07" cy="1991.07" r="0.07" fill="white"/><circle cx="681.12" cy="2013.12" r="0.12" fill="white"/><circle cx="866.18" cy="2016.18" r="0.18" fill="white"/><circle cx="766.18" cy="2024.18" r="0.18" fill="white"/><circle cx="455.07" cy="2029.07" r="0.07" fill="white"/><circle cx="822.02" cy="2031.02" r="0.02" fill="white"/><circle cx="968.11" cy="2031.11" r="0.11" fill="white"/><circle cx="292.12" cy="2050.12" r="0.12" fill="white"/><circle cx="494.14" cy="2050.14" r="0.14" fill="white"/><circle cx="1058.11" cy="2051.11" r="0.11" fill="white"/><circle cx="883.16" cy="2064.16" r="0.16" fill="white"/><circle cx="570.1" cy="2067.1" r="0.1" fill="white"/><circle cx="351.11" cy="2085.11" r="0.11" fill="white"/><circle cx="289.05" cy="2098.05" r="0.05" fill="white"/><circle cx="811.13" cy="2118.13" r="0.13" fill="white"/><circle cx="925.1" cy="2120.1" r="0.1" fill="white"/><circle cx="111.11" cy="2126.11" r="0.11" fill="white"/><circle cx="684.04" cy="2127.04" r="0.04" fill="white"/><circle cx="550.03" cy="2139.03" r="0.03" fill="white"/><circle cx="660.18" cy="2157.18" r="0.18" fill="white"/><circle cx="963.15" cy="2166.15" r="0.15" fill="white"/><circle cx="651.1" cy="2190.1" r="0.1" fill="white"/><circle cx="135.02" cy="2191.02" r="0.02" fill="white"/><circle cx="941.18" cy="2194.18" r="0.18" fill="white"/><circle cx="839.15" cy="2200.15" r="0.15" fill="white"/><circle cx="886.04" cy="2253.04" r="0.04" fill="white"/><circle cx="911.09" cy="2261.09" r="0.09" fill="white"/><circle cx="955.07" cy="2263.07" r="0.07" fill="white"/><circle cx="450.2" cy="2266.2" r="0.2" fill="white"/><circle cx="883.02" cy="2284.02" r="0.02" fill="white"/><circle cx="1037.14" cy="2301.14" r="0.14" fill="white"/><circle cx="1043.13" cy="2306.13" r="0.13" fill="white"/><circle cx="32.09" cy="2307.09" r="0.09" fill="white"/><circle cx="269.1" cy="2308.1" r="0.1" fill="white"/><circle cx="936.17" cy="2308.17" r="0.17" fill="white"/><circle cx="1031.2" cy="2325.2" r="0.2" fill="white"/><circle cx="284.2" cy="2338.2" r="0.2" fill="white"/><circle cx="947.13" cy="2370.13" r="0.13" fill="white"/><circle cx="140.03" cy="2389.03" r="0.03" fill="white"/><circle cx="539.17" cy="2413.17" r="0.17" fill="white"/><circle cx="805.09" cy="2419.09" r="0.09" fill="white"/><circle cx="888.05" cy="2428.05" r="0.05" fill="white"/><circle cx="1028.15" cy="2435.15" r="0.15" fill="white"/><circle cx="362.16" cy="2454.16" r="0.16" fill="white"/><circle cx="594.07" cy="2466.07" r="0.07" fill="white"/><circle cx="934.17" cy="2476.17" r="0.17" fill="white"/><circle cx="150.07" cy="2489.07" r="0.07" fill="white"/><circle cx="508.06" cy="2492.06" r="0.06" fill="white"/><circle cx="936.09" cy="2492.09" r="0.09" fill="white"/><circle cx="1025.09" cy="2493.09" r="0.09" fill="white"/><circle cx="959.02" cy="2514.02" r="0.02" fill="white"/><circle cx="410.06" cy="2516.06" r="0.06" fill="white"/><circle cx="914.05" cy="2530.05" r="0.05" fill="white"/><circle cx="440.19" cy="2550.19" r="0.19" fill="white"/><circle cx="443.03" cy="2554.03" r="0.03" fill="white"/><circle cx="903.05" cy="2569.05" r="0.05" fill="white"/><circle cx="829.11" cy="2588.11" r="0.11" fill="white"/><circle cx="195.06" cy="2609.06" r="0.06" fill="white"/><circle cx="256.12" cy="2620.12" r="0.12" fill="white"/><circle cx="816.04" cy="2620.04" r="0.04" fill="white"/><circle cx="130.06" cy="2659.06" r="0.06" fill="white"/><circle cx="732.17" cy="2661.17" r="0.17" fill="white"/><circle cx="865.02" cy="2671.02" r="0.02" fill="white"/><circle cx="104.13" cy="2674.13" r="0.13" fill="white"/><circle cx="0.03" cy="2679.03" r="0.03" fill="white"/><circle cx="10.14" cy="2684.14" r="0.14" fill="white"/><circle cx="896.12" cy="2689.12" r="0.12" fill="white"/><circle cx="717.05" cy="2691.05" r="0.05" fill="white"/><circle cx="441.13" cy="2708.13" r="0.13" fill="white"/><circle cx="793.07" cy="2720.07" r="0.07" fill="white"/><circle cx="72.13" cy="2723.13" r="0.13" fill="white"/><circle cx="947.13" cy="2725.13" r="0.13" fill="white"/><circle cx="439.2" cy="2760.2" r="0.2" fill="white"/><circle cx="788.09" cy="2762.09" r="0.09" fill="white"/><circle cx="280.07" cy="2782.07" r="0.07" fill="white"/><circle cx="199.16" cy="2794.16" r="0.16" fill="white"/><circle cx="1048.05" cy="2806.05" r="0.05" fill="white"/><circle cx="916.09" cy="2818.09" r="0.09" fill="white"/><circle cx="155.18" cy="2824.18" r="0.18" fill="white"/><circle cx="1000.18" cy="2861.18" r="0.18" fill="white"/><circle cx="417.1" cy="2865.1" r="0.1" fill="white"/><circle cx="715.04" cy="2865.04" r="0.04" fill="white"/><circle cx="717.08" cy="2865.08" r="0.08" fill="white"/><circle cx="954.11" cy="2871.11" r="0.11" fill="white"/><circle cx="569.05" cy="2876.05" r="0.05" fill="white"/><circle cx="358.15" cy="2886.15" r="0.15" fill="white"/><circle cx="1046.03" cy="2886.03" r="0.03" fill="white"/><circle cx="275.16" cy="2889.16" r="0.16" fill="white"/><circle cx="730.03" cy="2893.03" r="0.03" fill="white"/><circle cx="673.04" cy="2907.04" r="0.04" fill="white"/><circle cx="975.05" cy="2913.05" r="0.05" fill="white"/><circle cx="75.16" cy="2933.16" r="0.16" fill="white"/><circle cx="495.03" cy="2938.03" r="0.03" fill="white"/><circle cx="1011.15" cy="2971.15" r="0.15" fill="white"/><circle cx="1053.1" cy="2974.1" r="0.1" fill="white"/><circle cx="115.17" cy="2981.17" r="0.17" fill="white"/><circle cx="615.18" cy="2984.18" r="0.18" fill="white"/><circle cx="265.12" cy="2987.12" r="0.12" fill="white"/><circle cx="484.11" cy="3007.11" r="0.11" fill="white"/><circle cx="610.15" cy="3011.15" r="0.15" fill="white"/><circle cx="1023.09" cy="3013.09" r="0.09" fill="white"/><circle cx="188.18" cy="3015.18" r="0.18" fill="white"/><circle cx="683.04" cy="3034.04" r="0.04" fill="white"/><circle cx="72.16" cy="3038.16" r="0.16" fill="white"/><circle cx="831.05" cy="3051.05" r="0.05" fill="white"/><circle cx="157.13" cy="3074.13" r="0.13" fill="white"/><circle cx="905.17" cy="3080.17" r="0.17" fill="white"/><circle cx="561.07" cy="3099.07" r="0.07" fill="white"/><circle cx="630.1" cy="3110.1" r="0.1" fill="white"/><circle cx="992.07" cy="3120.07" r="0.07" fill="white"/><circle cx="109.07" cy="3141.07" r="0.07" fill="white"/><circle cx="782.08" cy="3144.08" r="0.08" fill="white"/><circle cx="595.08" cy="3150.08" r="0.08" fill="white"/><circle cx="1019.19" cy="3157.19" r="0.19" fill="white"/><circle cx="372.12" cy="3177.12" r="0.12" fill="white"/><circle cx="401.06" cy="3187.06" r="0.06" fill="white"/><circle cx="968.01" cy="3201.01" r="0.01" fill="white"/><circle cx="590.16" cy="3208.16" r="0.16" fill="white"/><circle cx="252.07" cy="3221.07" r="0.07" fill="white"/><circle cx="352.13" cy="3230.13" r="0.13" fill="white"/><circle cx="118.17" cy="3240.17" r="0.17" fill="white"/><circle cx="670.08" cy="3270.08" r="0.08" fill="white"/><circle cx="233.19" cy="3296.19" r="0.19" fill="white"/><circle cx="449.01" cy="3297.01" r="0.01" fill="white"/><circle cx="419.11" cy="3302.11" r="0.11" fill="white"/><circle cx="66.09" cy="3305.09" r="0.09" fill="white"/><circle cx="430.18" cy="3307.18" r="0.18" fill="white"/><circle cx="235.11" cy="3327.11" r="0.11" fill="white"/><circle cx="119.14" cy="3339.14" r="0.14" fill="white"/><circle cx="1.15" cy="3343.15" r="0.15" fill="white"/><circle cx="989.18" cy="3354.18" r="0.18" fill="white"/><circle cx="909.14" cy="3364.14" r="0.14" fill="white"/><circle cx="502.03" cy="3367.03" r="0.03" fill="white"/><circle cx="954.05" cy="3370.05" r="0.05" fill="white"/><circle cx="779.03" cy="3373.03" r="0.03" fill="white"/><circle cx="630.03" cy="3374.03" r="0.03" fill="white"/><circle cx="74.06" cy="3376.06" r="0.06" fill="white"/><circle cx="815.19" cy="3410.19" r="0.19" fill="white"/><circle cx="990.18" cy="3410.18" r="0.18" fill="white"/><circle cx="674.09" cy="3413.09" r="0.09" fill="white"/><circle cx="408.14" cy="3433.14" r="0.14" fill="white"/><circle cx="892.17" cy="3437.17" r="0.17" fill="white"/><circle cx="166.19" cy="3445.19" r="0.19" fill="white"/><circle cx="380.06" cy="3469.06" r="0.06" fill="white"/><circle cx="745.15" cy="3496.15" r="0.15" fill="white"/><circle cx="838.03" cy="3500.03" r="0.03" fill="white"/><circle cx="692.17" cy="3510.17" r="0.17" fill="white"/><circle cx="559.12" cy="3517.12" r="0.12" fill="white"/><circle cx="52.11" cy="3518.11" r="0.11" fill="white"/><circle cx="918.11" cy="3520.11" r="0.11" fill="white"/><circle cx="107.08" cy="3543.08" r="0.08" fill="white"/><circle cx="55.19" cy="3568.19" r="0.19" fill="white"/><circle cx="1038.06" cy="3576.06" r="0.06" fill="white"/><circle cx="772.15" cy="3588.15" r="0.15" fill="white"/><circle cx="552.14" cy="3601.14" r="0.14" fill="white"/><circle cx="653.04" cy="3607.04" r="0.04" fill="white"/><circle cx="825.14" cy="3620.14" r="0.14" fill="white"/><circle cx="390.08" cy="3626.08" r="0.08" fill="white"/><circle cx="452.06" cy="3629.06" r="0.06" fill="white"/><circle cx="1003.15" cy="3642.15" r="0.15" fill="white"/><circle cx="610.02" cy="3643.02" r="0.02" fill="white"/><circle cx="182.02" cy="3648.02" r="0.02" fill="white"/><circle cx="261.17" cy="3648.17" r="0.17" fill="white"/><circle cx="649.01" cy="3653.01" r="0.01" fill="white"/><circle cx="764.06" cy="3653.06" r="0.06" fill="white"/><circle cx="711.06" cy="3654.06" r="0.06" fill="white"/><circle cx="285.19" cy="3655.19" r="0.19" fill="white"/><circle cx="732.13" cy="3674.13" r="0.13" fill="white"/><circle cx="137.17" cy="3686.17" r="0.17" fill="white"/><circle cx="542.02" cy="3686.02" r="0.02" fill="white"/><circle cx="413.14" cy="3707.14" r="0.14" fill="white"/><circle cx="103.13" cy="3726.13" r="0.13" fill="white"/><circle cx="243.05" cy="3737.05" r="0.05" fill="white"/><circle cx="611.19" cy="3744.19" r="0.19" fill="white"/><circle cx="993.04" cy="3764.04" r="0.04" fill="white"/><circle cx="585.06" cy="3769.06" r="0.06" fill="white"/><circle cx="1020.04" cy="3791.04" r="0.04" fill="white"/><circle cx="101.16" cy="3799.16" r="0.16" fill="white"/><circle cx="533.16" cy="3817.16" r="0.16" fill="white"/><circle cx="923.18" cy="3817.18" r="0.18" fill="white"/><circle cx="633.15" cy="3839.15" r="0.15" fill="white"/></svg>